<svg id="sausageScene" xmlns="http://www.w3.org/2000/svg" xmlns:xlink="http://www.w3.org/1999/xlink" viewBox="0 0 1458.16 267.25"><defs><linearGradient id="linear-gradient" x1="567.73" y1="228.55" x2="568.08" y2="234.25" gradientTransform="matrix(-0.86, 0.13, -0.17, 0.98, 1137.98, -69.27)" gradientUnits="userSpaceOnUse"><stop offset="0" stop-color="#cce0f4" stop-opacity="0.2"/><stop offset="0.25" stop-color="#b0d5ef" stop-opacity="0.25"/><stop offset="0.68" stop-color="#65b8e3" stop-opacity="0.38"/><stop offset="1" stop-color="#1e9cd7" stop-opacity="0.5"/></linearGradient><linearGradient id="linear-gradient-2" x1="563.98" y1="228.12" x2="564.4" y2="234.99" gradientTransform="matrix(-1, 0, 0, 1, 1177.68, 0)" xlink:href="#linear-gradient"/></defs><title>marketing-sausage</title><path id="motionPath" d="M1433.89,151.55s-55.09-4.84-92.59,15.43c-34.14,15.69-70.58,44.43-94.08,69.81-12.5,13.5-28,52.71.7,50,22.35-2.09,21-27.66,13-53-9.06-28.51-41.35-34.16-44.64-63.52s24.17-33,29.86-33,24.73,10.63,11.89,29.06-47.54,34.45-73.31,39.25-26.47-20.07-25.57-33.26-1-29-11.48-28.47c-15.61.76-33.25,39.33-38.15,43.14-5.81,4.51-15.63,13.09-25.38,10-11.09-3.53-8.19-25.86-8.19-25.86,1.8-28.46-2.63-38.07-18.87-32.76-13.83,4.52-27.89,55.42-45.14,63.62-14.16,6.73-48.46,2.88-49.24-23.67-1-33.56,12.32-46.13-3.26-57.21s-38.57-7.45-77.88,3.57c-25.22,7.07-75.58,1-81.85-.29S759,109.79,823.93,111.34C893.26,113,900.34,163,900.34,163s7.18,33.64-16.18,40.14c-24.71,6.88-28.56-14-30.06-22.37s-1.63-62.65,1.69-99.18c3.28-36,14.28-31,14.28-31C893.6,64,837.15,142.78,817.54,168.27c-19,24.67-40.33,35.78-58.92,37.55-19.32,1.84-42-7.78-49.44-25.16s9.59-43.95,30-42.45,21.78,23.27,11.89,35.86-24.61,24.12-44.35,31.06c-22.77,8-51.74-7.79-61.93-18.88s-11.59-18.87-1.4-35,15.58-11.28,19.18-8.29-3.2,6.59-7.1,12.58-26.26,20.37-33.75,28.16-16,24.37-21.08,25.27,0.24-72.23,1.1-103.37c0.79-28.59,5.69-48.44,9.59-54.73s12.92-10.56,17.08-1.7c5.5,11.71-19,60.52-19,60.52-6.55,7-29.71,69.65-43.95,84.2C547.21,212.5,530.9,207,520.11,201s-14.68-32.36-19.48-46.44-22.67-19-41.95-12.89c-13.59,4.28-14.93,8.53-12.39,29.76,2.33,19.42-17.58,27.76-17.58,27.76s-27.91,17.93-40.45-7c-11.9-23.63-30.21-27.08-44-26.37,0,0-28.87,1.7-29.46,19.68s16.83,20.79,26.77,20.07c11.68-.85,25.37-7.09,36.45-22.37s0.1-28.65-3.9-37.95-17.38-9.29-24.27-7.19-25,12.28-31.52,28.18a96.76,96.76,0,0,1-16.52,26.55s-18.28,15.48-33.86,13.08-14.48-20.37-13.28-28.16S253.34,152,240.75,152,214,178.66,214,178.66c-6.78,9-17.57,27.18-26.77,27.06-11.41-.14-11.28-5.19-13.08-9.69s-1-36.76-2.5-41.55-10.51-16.66-21.27-6.39c-11.53,11-13.79,20.51-31.56,40.65-15.07,17.08-25.09,3.93-27-1.1s1-26.46-2.6-38.75-16-14.51-23.77-9c-6.71,4.79-12.68,20.58-16.68,26.77-2.55,3.94-7.75,8-10.49,10.49-15.59,14.4-58.58,12-58.58,12" transform="translate(23.57 -32.95)" style="fill:none;stroke:#0f374d;stroke-miterlimit:10;stroke-width:16px;opacity:0"/><g id="sausage"><line id="spine" x1="631.4" y1="198.52" x2="574.67" y2="198.52" style="fill:none;stroke:#1b1464;stroke-linecap:round;stroke-linejoin:round;stroke-width:3px"/><g id="bendables"><path id="pants" d="M578.4,232.47H562.1" transform="translate(23.57 -32.95)" style="fill:none;stroke:#5e534c;stroke-linecap:round;stroke-linejoin:round;stroke-width:14px"/><path id="belly" d="M586.4,232.47h-7.3" transform="translate(23.57 -32.95)" style="fill:none;stroke:#c79471;stroke-linecap:round;stroke-linejoin:round;stroke-width:14px"/><path id="top" d="M605.32,232.47H583.24" transform="translate(23.57 -32.95)" style="fill:none;stroke:#0071bc;stroke-linecap:round;stroke-linejoin:round;stroke-width:14px"/><path id="arm" d="M597.95,234.61a48.63,48.63,0,0,1-7.11.39,40.85,40.85,0,0,1-6.11-.53,5.68,5.68,0,0,1-1-5,66.51,66.51,0,0,0,7.11.71,48.84,48.84,0,0,0,7.11-.57" transform="translate(23.57 -32.95)" style="fill:none;stroke:#00416b;stroke-linecap:round;stroke-linejoin:round;stroke-width:0.75px"/><path id="hand" d="M581,233.38a8.88,8.88,0,0,0,3.32,1c0.39,0.74-1.22-2.88-.53-4.72a7.44,7.44,0,0,0-2.09-.67S578.71,229.49,581,233.38Z" transform="translate(23.57 -32.95)" style="fill:#c79471"/><path id="shoes" d="M557.45,237.18c-1.84,1.31-4.55.45-5.41,0.12-1.89-.89-5,1.1-8.59.58s-1-1.69.75-3c-3.17-.54-0.7-1.69,1-3s5.86-2.39,5.86-2.39,1-2.77,2.19-3c3-.51,3.35.44,3.35,0.44" transform="translate(23.57 -32.95)" style="fill:#1f1f1f"/><path id="pants_end" d="M561,239.48l-6.54-.72c-2.08-3-.89-9-0.89-9h2.69c0.09-1.71.31-4,.31-4h6" transform="translate(23.57 -32.95)" style="fill:#5f534c"/><path id="crotch" d="M556.73,229.72s5.53-.42,7.37-0.42,2.24-1.55,4.81-2" transform="translate(23.57 -32.95)" style="fill:none;stroke:#3b342f;stroke-linecap:round;stroke-linejoin:round"/></g><g id="head"><ellipse id="bg" cx="631.31" cy="199.33" rx="6.04" ry="7.02" style="fill:#c79471"/><path id="beard" d="M602.78,235.23l2,0.31c0.78,1.73,2.37.56,3.39-.13a8.75,8.75,0,0,1,3.37-.79,8.14,8.14,0,0,0,2-.31,7.19,7.19,0,0,1-2.4,3.78,5.26,5.26,0,0,1-5.84.31c-0.84-.52-2.49-1.73-2.49-3.18" transform="translate(23.57 -32.95)" style="opacity:0.2"/><path id="hair" d="M605.18,223.33c0.79-.55,1.1,0,1.83-0.17a4.37,4.37,0,0,1,1.26-.4c1.18,0,3.32,1.18,3.32,2.06a0.85,0.85,0,0,1,.5,1.49c-0.63.75-.87-0.06-1.64-0.42-1.7-.82-2.43,0-3.86.75-0.84.46-1.31,0.47-1.74,1.22-0.57,1-.19,2.16-0.31,3.26-0.16,1.44-.57,2.2.17,3.57-1.37-.23-1.52-0.16-2.23-1a12.76,12.76,0,0,1-2.54-4c-0.46-1.68,0-4.24,1.51-5.32C601.89,224,604.81,223,605.18,223.33Z" transform="translate(23.57 -32.95)"/><path id="mouth" d="M611.27,237.59a2.21,2.21,0,0,1-1.38-.53c-0.13-.2,0-0.52.88-0.45a3.79,3.79,0,0,0,2.13-.68S611.92,237.63,611.27,237.59Z" transform="translate(23.57 -32.95)"/><path id="nose" d="M612,229.37c2.11,2.83,3.22,5.95.29,5.26" transform="translate(23.57 -32.95)" style="fill:#c79471;stroke:#4d4139;stroke-miterlimit:10;stroke-width:0.5px"/><g id="glasses"><path d="M608.49,233l2.13-.45a0.42,0.42,0,0,0,.3-0.41l0-.89a0.26,0.26,0,0,0-.31-0.28l-2.13.45a0.42,0.42,0,0,0-.3.41l0,0.89A0.26,0.26,0,0,0,608.49,233Z" transform="translate(23.57 -32.95)" style="stroke:#000;stroke-miterlimit:10;stroke-width:0.5px;fill:url(#linear-gradient)"/><path d="M613.24,231.38l1.11-.75a0.44,0.44,0,0,0,.06-0.44l-0.25-.86c-0.05-.18-0.17-0.28-0.26-0.22l-1.11.75a0.44,0.44,0,0,0-.06.44l0.25,0.86C613,231.34,613.16,231.44,613.24,231.38Z" transform="translate(23.57 -32.95)" style="stroke:#000;stroke-miterlimit:10;stroke-width:0.5px;fill:url(#linear-gradient-2)"/><path d="M612.74,230.29a1.91,1.91,0,0,0-1.83,1" transform="translate(23.57 -32.95)" style="fill:none;stroke:#000;stroke-miterlimit:10;stroke-width:0.5px"/><line x1="631.73" y1="198.65" x2="626.35" y2="198.33" style="fill:none;stroke:#000;stroke-miterlimit:10;stroke-width:0.5px"/></g></g></g><g id="hls" style="opacity:0.3"><path d="M-23.29,195.81s1.66-.06,4.49-0.29" transform="translate(23.57 -32.95)" style="fill:none;stroke:#cee3ed;stroke-miterlimit:10;stroke-width:16px"/><path d="M-13.82,195c13.51-1.56,38.2-6.08,52.13-18.85,0,0,7.19-3.9,10.49-10.49s10-22,16.68-26.77c7.75-5.53,20.17-3.3,23.77,9s0.73,33.75,2.6,38.75,11.9,18.18,27,1.1c17.77-20.14,20-29.65,31.56-40.65,10.76-10.27,19.78,1.6,21.27,6.39s0.7,37.06,2.5,41.55,1.68,9.54,13.08,9.69c9.2,0.12,20-18,26.77-27.06,0,0,14.18-26.67,26.76-26.67s15.08,18,13.88,25.77-2.3,25.76,13.28,28.16,33.86-13.08,33.86-13.08a96.76,96.76,0,0,0,16.52-26.55c6.55-15.9,24.63-26.08,31.52-28.18s20.33-2,24.27,7.19,15,22.67,3.9,37.95-24.77,21.53-36.45,22.37c-9.93.72-27.37-2.09-26.77-20.07s29.46-19.68,29.46-19.68c13.84-.72,32.15,2.73,44,26.37,12.54,24.92,40.45,7,40.45,7s19.9-10.35,17.58-29.76c-2.54-21.23-1.2-25.49,12.39-29.76,19.28-6.07,37.15-1.19,41.95,12.89S509.32,194,520.11,200s25.1,11.46,43.35-7.19c14.24-14.56,37.39-77.21,43.95-84.2,0,0,24.48-48.81,19-60.52-4.16-8.85-11.19-4.59-15.08,1.7s-8.8,26.14-9.59,54.73c-0.86,31.14-6.19,104.27-1.1,103.37s13.58-17.48,21.08-25.27,29.85-22.17,33.75-28.16,10.69-9.59,7.1-12.58-9-7.89-19.18,8.29-8.79,24,1.4,35,37.16,26.88,59.93,18.88A101.36,101.36,0,0,0,750,172.07c9.89-12.58,9.48-33.36-10.89-34.86s-37.45,25.07-30,42.45,30.13,27,49.44,25.16c18.6-1.77,38.95-12.88,57.92-37.55,19.61-25.5,74.77-109.09,53.54-117.66,0,0-11-5-14.28,31-3.33,36.52-3.19,90.79-1.69,99.18s5.35,29.25,30.06,22.37c23.36-6.5,16.18-40.14,16.18-40.14s-7.08-50-76.41-51.64c-64.9-1.55-30.54,11.83-24.27,13.09s56.63,7.36,81.85.29c39.31-11,62.3-14.66,77.88-3.57s2.28,23.65,3.26,57.21c0.78,26.55,31.08,30.4,45.24,23.67,17.26-8.2,31.32-59.1,45.14-63.62,16.24-5.31,24.67,4.3,22.87,32.76,0,0-2.9,22.33,8.19,25.86,9.75,3.1,15.57-5.48,21.38-10,4.9-3.8,22.53-42.38,38.15-43.14,10.52-.51,14.38,15.28,13.48,28.47s1.8,38,27.57,33.26,59.46-22.81,72.31-41.25-5.19-27.06-10.89-27.06-33.16,3.59-29.86,33,35.58,35,44.64,63.52c8.07,25.38,6.37,52.94-16,55-28.74,2.68-15.2-38.53-2.7-52C1264.28,212,1297.74,183.42,1330,167" transform="translate(23.57 -32.95)" style="fill:none;stroke:#cee3ed;stroke-miterlimit:10;stroke-width:16px;stroke-dasharray:9.01701831817627,5.009454727172852"/><path d="M1332.23,165.91q2-1,4.06-1.93" transform="translate(23.57 -32.95)" style="fill:none;stroke:#cee3ed;stroke-miterlimit:10;stroke-width:16px"/></g></svg>